<svg width="124" height="43" viewBox="0 0 124 43" fill="none" xmlns="http://www.w3.org/2000/svg">
<g clip-path="url(#clip0_155_5138)">
<rect width="124" height="43" fill="white"/>
<path d="M20.0175 31.9691C22.1613 29.2199 24.5161 24.7494 24.5161 24.7494C24.5161 24.7494 24.9726 23.8436 25.0964 24.7323C25.2202 25.6211 24.9021 27.2715 24.4821 28.5241C24.0621 29.7766 23.4092 32.1082 23.4092 32.1082C23.4092 32.1082 22.9235 32.892 23.6713 33.2582C24.419 33.6244 24.674 32.6137 24.674 32.6137C24.674 32.6137 28.1821 25.5332 29.5926 13.5696C29.5926 13.5427 29.5926 13.5182 29.5926 13.4915C29.5926 12.7882 29.4713 2.82185 29.4713 2.20167C29.4713 1.5815 29.2769 0.980814 28.6968 1.00047C28.1164 1.01995 27.9683 1.55702 28.029 2.2896C28.0899 3.02202 27.8349 9.92667 27.5435 11.2672C27.2523 12.6075 26.8419 13.8601 26.2447 14.197C26.1476 14.2532 26.0602 14.302 25.98 14.3436C25.6004 14.5508 25.2507 14.8096 24.9411 15.1125C24.7614 15.2884 24.5235 15.5008 24.2126 15.7449C23.3509 16.4408 22.3845 16.807 21.3649 16.3358C20.3452 15.8646 20.5906 14.6146 20.6099 14.3361L20.627 14.0579C20.627 14.0579 20.7676 13.3791 20.1414 13.3425C19.5151 13.3058 19.413 13.5867 19.3863 14.2311C19.3597 14.8758 19.0173 18.3208 20.423 18.8701C21.4704 19.2306 22.5554 19.4698 23.6568 19.583L22.6176 22.4984C22.6176 22.4984 21.1951 25.6723 20.2968 27.2154C19.3985 28.7584 17.3276 31.7566 16.2376 32.9384C16.07 33.1215 15.8782 33.3242 15.6743 33.5341C16.5726 33.6708 17.4369 33.8197 18.2089 33.9735C18.8551 33.3463 19.4594 32.6766 20.0175 31.9691Z" fill="url(#paint0_linear_155_5138)"/>
<path d="M14.072 35.1133C13.4918 35.6772 13.0548 36.09 13.0548 36.09C13.0548 36.09 12.2998 36.9079 12.863 37.4279C13.4263 37.9479 14.2517 37.2717 14.2517 37.2717C14.2517 37.2717 14.98 36.7638 15.9511 35.9581L15.9171 35.9312C15.3518 35.5571 14.7281 35.2805 14.072 35.1133Z" fill="#E8670A"/>
<path d="M15.6646 33.5195C15.1475 34.0494 14.5527 34.6352 14.0623 35.1138C14.7229 35.2773 15.3516 35.5513 15.9219 35.9244L15.9559 35.9513C16.6308 35.3995 17.4295 34.7109 18.2088 33.9492C17.4368 33.8052 16.5725 33.6563 15.6646 33.5195Z" fill="#FF6E06"/>
<path d="M24.6041 13.6464C25.4321 13.8223 25.8836 13.4559 26.1119 12.9897C26.4821 12.2631 26.5803 11.4269 26.3886 10.6335C26.3234 10.3395 26.1976 10.0624 26.0189 9.82055C25.8403 9.57866 25.6131 9.37728 25.3519 9.22969C25.3519 9.22969 24.1817 8.65349 23.4098 9.36642C22.6377 10.0793 22.5407 11.0999 22.8829 12.013C23.1912 12.8309 23.7788 13.4657 24.6041 13.6464Z" fill="url(#paint1_linear_155_5138)"/>
<path d="M15.5508 33.6447C13.5965 33.3445 11.4941 33.0881 9.89177 32.9123C6.92263 32.5826 3.88067 32.6169 2.96542 32.9123C2.05016 33.2078 1.68357 33.8352 2.31721 34.1844C2.861 34.3399 3.42049 34.4331 3.98507 34.4626C5.02414 34.5311 6.02438 34.6702 6.41281 35.1049C6.80125 35.5394 8.64391 35.5931 9.73396 35.2269C10.5181 34.9656 12.2758 34.7997 13.9485 35.2416C14.4511 34.7606 15.0361 34.1745 15.5508 33.6447Z" fill="url(#paint2_linear_155_5138)"/>
<path d="M30.2121 39.1745C28.5757 38.1319 22.0912 35.1557 19.8238 34.4942C19.3381 34.3524 18.7483 34.2157 18.0855 34.084C17.3062 34.8457 16.5074 35.5342 15.835 36.0861C17.8136 37.4483 18.8211 38.6129 20.5205 39.6457C22.2198 40.6785 24.6695 41.9579 25.6891 42.1166C26.7088 42.2754 29.644 42.6904 31.0157 42.1166C32.3872 41.5428 31.8459 40.2195 30.2121 39.1745Z" fill="url(#paint3_linear_155_5138)"/>
<path d="M15.5508 33.6465C15.0361 34.1763 14.4413 34.7623 13.9485 35.2408C14.6066 35.4077 15.232 35.6851 15.7984 36.0611L15.8348 36.088C16.5073 35.5363 17.306 34.8477 18.0853 34.086C17.3158 33.9298 16.4491 33.7832 15.5508 33.6465Z" fill="url(#paint4_linear_155_5138)"/>
<path d="M36.5966 20.8557C36.5966 20.8557 34.7394 20.6116 33.9261 22.0375C33.8742 22.1299 33.7987 22.2068 33.7073 22.26C33.6159 22.3131 33.5122 22.3409 33.4066 22.3402V21.1342H30.032V33.8131H33.829V25.6338C33.829 25.6338 33.5863 24.4742 35.1885 24.4742C36.7909 24.4742 36.5482 25.8195 36.5482 25.8195L36.6889 33.8081H40.3306L40.2018 23.1752C40.2018 23.1752 40.0197 20.8557 36.5966 20.8557Z" fill="url(#paint5_linear_155_5138)"/>
<path d="M46.2523 17.5586H42.7854L42.8244 21.2722H41.7051V24.9784L42.7854 24.9662V33.812H46.6747L46.6285 24.9784H48.0804V21.2722H46.2523V17.5586Z" fill="url(#paint6_linear_155_5138)"/>
<path d="M54.2467 30.7428C52.9091 30.7428 52.3045 29.9078 52.5474 28.2378H59.2503C59.2503 28.2378 59.6703 23.2716 57.0945 21.7408C54.5186 20.2101 51.8433 21.4161 51.2824 21.7408C50.7217 22.0656 48.0948 23.6941 48.3691 28.0499C48.6434 32.4056 51.4645 33.9901 54.254 33.8973C57.0434 33.8046 58.7793 32.4128 59.2698 29.6759L55.48 29.6296C55.48 29.6296 55.5821 30.7428 54.2467 30.7428ZM54.2467 23.5501C55.7227 23.5501 55.9462 25.5692 55.9462 25.5692H52.5352C52.5352 25.5692 52.7683 23.5501 54.2467 23.5501Z" fill="url(#paint7_linear_155_5138)"/>
<path d="M64.8605 13.8008H60.7358V33.8971H64.8605V13.8008Z" fill="url(#paint8_linear_155_5138)"/>
<path d="M70.5319 13.8008H66.4072V33.8971H70.5319V13.8008Z" fill="url(#paint9_linear_155_5138)"/>
<path d="M76.157 20.9805H72.0322V33.9013H76.157V20.9805Z" fill="url(#paint10_linear_155_5138)"/>
<path d="M74.0958 19.3244C75.2355 19.3244 76.1595 18.1613 76.1595 16.7267C76.1595 15.2918 75.2355 14.1289 74.0958 14.1289C72.9562 14.1289 72.0322 15.2918 72.0322 16.7267C72.0322 18.1613 72.9562 19.3244 74.0958 19.3244Z" fill="url(#paint11_linear_155_5138)"/>
<path d="M85.2511 15.752H77.9873V33.9292H82.1582V27.9083H84.9161C85.7795 27.9147 86.6225 27.6435 87.3219 27.1344C87.8016 26.7997 88.1982 26.3585 88.4811 25.845C88.764 25.3314 88.9256 24.7592 88.9533 24.1728C89.0942 21.2771 89.7982 16.3085 85.2511 15.752ZM81.7818 23.8506V19.3238C85.018 18.9064 85.2511 21.3675 85.2511 21.3675C85.2995 25.0323 81.7818 23.8506 81.7818 23.8506Z" fill="url(#paint12_linear_155_5138)"/>
<path d="M97.8607 22.2921C97.834 22.5045 97.7151 22.4873 97.618 22.4361C97.5788 22.414 97.5445 22.3844 97.5169 22.3487C97.4894 22.313 97.4694 22.2721 97.4578 22.2285C97.0571 20.854 95.1418 20.854 95.1418 20.854C91.7211 20.5756 90.0435 24.4723 89.9852 26.0032C89.927 27.534 89.9221 32.759 93.219 33.6135C96.205 34.3875 97.2975 33.1497 97.4383 32.9176C97.4547 32.8861 97.4795 32.8597 97.5099 32.8416C97.5404 32.8235 97.5754 32.8144 97.6107 32.8152C97.6771 32.8195 97.7392 32.8494 97.7844 32.8983C97.8295 32.9475 97.8542 33.0119 97.8535 33.0788V33.8576H101.607V21.1323H97.8607C97.8852 21.5185 97.8852 21.9059 97.8607 22.2921ZM95.8457 29.8609C94.7047 29.8609 93.7821 28.7719 93.7821 27.4194C93.7821 26.0668 94.7047 24.9778 95.8457 24.9778C96.9868 24.9778 97.9069 26.0692 97.9069 27.4194C97.9069 28.7695 96.994 29.8487 95.8457 29.8487V29.8609Z" fill="url(#paint13_linear_155_5138)"/>
<path d="M110.657 22.4824C110.631 22.6949 110.509 22.6778 110.415 22.6266C110.376 22.6045 110.342 22.5747 110.314 22.539C110.287 22.5033 110.268 22.4625 110.257 22.419C109.861 21.0371 107.938 21.0371 107.938 21.0371C104.515 20.7587 102.84 24.2697 102.782 26.1888C102.692 28.8623 102.782 32.7321 106.015 33.7992C109.249 34.8661 110.094 33.3352 110.235 33.1033C110.251 33.0716 110.276 33.0454 110.307 33.0271C110.337 33.009 110.372 32.9999 110.407 33.0007C110.474 33.005 110.536 33.0349 110.581 33.0838C110.626 33.133 110.651 33.1976 110.65 33.2643V33.7992H114.398V21.3204H110.657C110.682 21.7073 110.682 22.0956 110.657 22.4824ZM108.64 30.0512C107.501 30.0512 106.579 28.9624 106.579 27.6097C106.579 26.2571 107.501 25.1681 108.64 25.1681C109.778 25.1681 110.703 26.2571 110.703 27.6097C110.703 28.9624 109.781 30.0392 108.647 30.0392L108.64 30.0512Z" fill="url(#paint14_linear_155_5138)"/>
<path d="M122 21.321H120.172V17.6074H116.702L116.775 21.321H115.625V24.9859L116.702 25.0224V33.6167H120.592L120.543 25.0224H122V21.321Z" fill="url(#paint15_linear_155_5138)"/>
</g>
<defs>
<linearGradient id="paint0_linear_155_5138" x1="22.6335" y1="0.999952" x2="22.6335" y2="33.9735" gradientUnits="userSpaceOnUse">
<stop stop-color="#FF6E06"/>
<stop offset="1" stop-color="#E7660A"/>
</linearGradient>
<linearGradient id="paint1_linear_155_5138" x1="24.5896" y1="9.00969" x2="24.5896" y2="13.6912" gradientUnits="userSpaceOnUse">
<stop stop-color="#6659B8"/>
<stop offset="1" stop-color="#3E28CA"/>
</linearGradient>
<linearGradient id="paint2_linear_155_5138" x1="8.77541" y1="32.6778" x2="8.77541" y2="35.4697" gradientUnits="userSpaceOnUse">
<stop stop-color="#6659B8"/>
<stop offset="1" stop-color="#3E28CA"/>
</linearGradient>
<linearGradient id="paint3_linear_155_5138" x1="23.8155" y1="34.084" x2="23.8155" y2="42.4107" gradientUnits="userSpaceOnUse">
<stop stop-color="#6659B8"/>
<stop offset="1" stop-color="#3E28CA"/>
</linearGradient>
<linearGradient id="paint4_linear_155_5138" x1="16.0169" y1="33.6465" x2="16.0169" y2="36.088" gradientUnits="userSpaceOnUse">
<stop stop-color="#6659B8"/>
<stop offset="1" stop-color="#3E28CA"/>
</linearGradient>
<linearGradient id="paint5_linear_155_5138" x1="35.1813" y1="20.8399" x2="35.1813" y2="33.8131" gradientUnits="userSpaceOnUse">
<stop stop-color="#6659B8"/>
<stop offset="1" stop-color="#3E28CA"/>
</linearGradient>
<linearGradient id="paint6_linear_155_5138" x1="44.8928" y1="17.5586" x2="44.8928" y2="33.812" gradientUnits="userSpaceOnUse">
<stop stop-color="#6659B8"/>
<stop offset="1" stop-color="#3E28CA"/>
</linearGradient>
<linearGradient id="paint7_linear_155_5138" x1="53.8124" y1="20.9823" x2="53.8124" y2="33.9011" gradientUnits="userSpaceOnUse">
<stop stop-color="#6659B8"/>
<stop offset="1" stop-color="#3E28CA"/>
</linearGradient>
<linearGradient id="paint8_linear_155_5138" x1="62.7981" y1="13.8008" x2="62.7981" y2="33.8971" gradientUnits="userSpaceOnUse">
<stop stop-color="#6659B8"/>
<stop offset="1" stop-color="#3E28CA"/>
</linearGradient>
<linearGradient id="paint9_linear_155_5138" x1="68.4696" y1="13.8008" x2="68.4696" y2="33.8971" gradientUnits="userSpaceOnUse">
<stop stop-color="#6659B8"/>
<stop offset="1" stop-color="#3E28CA"/>
</linearGradient>
<linearGradient id="paint10_linear_155_5138" x1="74.0946" y1="20.9805" x2="74.0946" y2="33.9013" gradientUnits="userSpaceOnUse">
<stop stop-color="#6659B8"/>
<stop offset="1" stop-color="#3E28CA"/>
</linearGradient>
<linearGradient id="paint11_linear_155_5138" x1="74.0958" y1="14.1289" x2="74.0958" y2="19.3244" gradientUnits="userSpaceOnUse">
<stop stop-color="#6659B8"/>
<stop offset="1" stop-color="#3E28CA"/>
</linearGradient>
<linearGradient id="paint12_linear_155_5138" x1="83.532" y1="15.752" x2="83.532" y2="33.9292" gradientUnits="userSpaceOnUse">
<stop stop-color="#FF6E06"/>
<stop offset="1" stop-color="#E7660A"/>
</linearGradient>
<linearGradient id="paint13_linear_155_5138" x1="95.7895" y1="20.8399" x2="95.7895" y2="33.865" gradientUnits="userSpaceOnUse">
<stop stop-color="#FF6E06"/>
<stop offset="1" stop-color="#E7660A"/>
</linearGradient>
<linearGradient id="paint14_linear_155_5138" x1="108.58" y1="21.0214" x2="108.58" y2="34.1731" gradientUnits="userSpaceOnUse">
<stop stop-color="#FF6E06"/>
<stop offset="1" stop-color="#E7660A"/>
</linearGradient>
<linearGradient id="paint15_linear_155_5138" x1="118.812" y1="17.6074" x2="118.812" y2="33.6167" gradientUnits="userSpaceOnUse">
<stop stop-color="#FF6E06"/>
<stop offset="1" stop-color="#E7660A"/>
</linearGradient>
<clipPath id="clip0_155_5138">
<rect width="124" height="43" fill="white"/>
</clipPath>
</defs>
</svg>
