<svg xmlns="http://www.w3.org/2000/svg" width="155" height="28" fill="none"><rect width="28" height="28" x="1" fill="#F47715" rx="6"/><path fill="#fff" d="M12.982 19.983a6.24 6.24 0 0 1-3.516-1.084 6.463 6.463 0 0 1-1.488-1.404 6.533 6.533 0 0 1-1.333-4.29 6.513 6.513 0 0 1 1.743-4.134 6.266 6.266 0 0 1 8.25-.827l.49-2.125a8.253 8.253 0 0 0-5.626-.986 8.345 8.345 0 0 0-4.94 2.91 8.61 8.61 0 0 0-1.959 5.455 8.612 8.612 0 0 0 1.93 5.465l-2.236 2.275a1.04 1.04 0 0 0 0 1.46 1.005 1.005 0 0 0 1.434 0l2.278-2.319a8.257 8.257 0 0 0 5.817 1.624 8.314 8.314 0 0 0 5.377-2.78l-.504-2.894a6.433 6.433 0 0 1-2.342 2.662 6.28 6.28 0 0 1-3.375.992z"/><path stroke="#fff" stroke-linecap="round" stroke-width="1.5" d="M11.333 14.265h5.724l1.665-6.546c.053-.21.355-.197.39.017l1.685 10.02a.2.2 0 0 0 .372.064l1.969-3.555H26"/><path fill="#fff" d="M47.368 23c-.448 0-.808-.184-1.08-.552l-5.544-7.296 2.184-2.232 5.736 7.584c.224.304.336.632.336.984 0 .448-.168.816-.504 1.104a1.748 1.748 0 0 1-1.128.408zm.288-16.92c.384 0 .696.16.936.48.256.304.384.616.384.936 0 .336-.144.648-.432.936l-10.056 9.624-.12-3.432 8.112-7.992c.368-.368.76-.552 1.176-.552zM37.288 23c-.448 0-.808-.136-1.08-.408a1.48 1.48 0 0 1-.408-1.056V7.664c0-.416.144-.76.432-1.032.288-.288.656-.432 1.104-.432.448 0 .8.144 1.056.432.272.272.408.616.408 1.032v13.872c0 .416-.136.768-.408 1.056-.272.272-.64.408-1.104.408zm16.639-1.464c0 .416-.144.768-.432 1.056-.272.272-.616.408-1.032.408-.4 0-.736-.136-1.008-.408a1.48 1.48 0 0 1-.408-1.056V6.704c0-.416.136-.76.408-1.032.288-.288.64-.432 1.056-.432.416 0 .752.144 1.008.432.272.272.408.616.408 1.032v14.832zm15.09-4.944c0 1.312-.296 2.472-.888 3.48a6.2 6.2 0 0 1-2.352 2.328c-.976.56-2.072.84-3.288.84-1.216 0-2.32-.28-3.312-.84a6.433 6.433 0 0 1-2.352-2.328c-.576-1.008-.864-2.168-.864-3.48 0-1.312.288-2.464.864-3.456a6.378 6.378 0 0 1 2.352-2.352c.992-.576 2.096-.864 3.312-.864 1.216 0 2.312.288 3.288.864a6.15 6.15 0 0 1 2.352 2.352c.592.992.888 2.144.888 3.456zm-2.88 0c0-.816-.168-1.52-.504-2.112a3.527 3.527 0 0 0-1.32-1.416 3.401 3.401 0 0 0-1.824-.504c-.672 0-1.288.168-1.848.504a3.761 3.761 0 0 0-1.32 1.416c-.32.592-.48 1.296-.48 2.112 0 .8.16 1.504.48 2.112a3.81 3.81 0 0 0 1.32 1.392c.56.336 1.176.504 1.848.504.672 0 1.28-.168 1.824-.504.56-.336 1-.8 1.32-1.392.336-.608.504-1.312.504-2.112zm14.448-6.432c.416 0 .76.144 1.033.432.272.272.407.616.407 1.032v6.096c0 1.696-.472 3.04-1.416 4.032s-2.303 1.488-4.08 1.488c-1.775 0-3.135-.496-4.08-1.488-.927-.992-1.391-2.336-1.391-4.032v-6.096c0-.416.135-.76.407-1.032a1.359 1.359 0 0 1 1.032-.432c.416 0 .76.144 1.032.432.273.272.409.616.409 1.032v6.096c0 .976.215 1.704.647 2.184.433.464 1.08.696 1.945.696.88 0 1.535-.232 1.968-.696.431-.48.647-1.208.647-2.184v-6.096c0-.416.136-.76.409-1.032a1.359 1.359 0 0 1 1.031-.432zm14.59-4.92c.416 0 .76.136 1.032.408.272.272.408.624.408 1.056v14.832c0 .416-.136.768-.408 1.056-.272.272-.616.408-1.032.408-.416 0-.76-.136-1.032-.408a1.48 1.48 0 0 1-.408-1.056V20.36l.528.216c0 .208-.112.464-.336.768a4.779 4.779 0 0 1-.912.864c-.384.288-.84.536-1.368.744a4.749 4.749 0 0 1-1.68.288c-1.104 0-2.104-.28-3-.84-.896-.576-1.608-1.36-2.136-2.352-.512-1.008-.768-2.16-.768-3.456 0-1.312.256-2.464.768-3.456.528-1.008 1.232-1.792 2.112-2.352a5.233 5.233 0 0 1 2.928-.864c.688 0 1.32.104 1.896.312a5.466 5.466 0 0 1 1.488.792c.432.32.76.648.984.984.24.32.36.592.36.816l-.864.312V6.704c0-.416.136-.76.408-1.032a1.359 1.359 0 0 1 1.032-.432zM90.327 20.6c.704 0 1.32-.176 1.848-.528a3.48 3.48 0 0 0 1.224-1.44c.304-.608.456-1.288.456-2.04 0-.768-.152-1.456-.456-2.064a3.48 3.48 0 0 0-1.224-1.44c-.528-.352-1.144-.528-1.848-.528-.688 0-1.296.176-1.824.528a3.654 3.654 0 0 0-1.248 1.44c-.288.608-.432 1.296-.432 2.064 0 .752.144 1.432.432 2.04.304.608.72 1.088 1.248 1.44.528.352 1.136.528 1.824.528zm10.679-14.424c.224 0 .456.064.696.192.256.112.448.264.576.456l5.832 8.976-1.2-.048 5.976-8.928c.304-.432.696-.648 1.176-.648.384 0 .728.136 1.032.408.304.272.456.624.456 1.056v13.896c0 .416-.136.768-.408 1.056-.272.272-.632.408-1.08.408-.448 0-.816-.136-1.104-.408a1.48 1.48 0 0 1-.408-1.056V10.232l.936.216-4.896 7.464a1.957 1.957 0 0 1-.552.456 1.068 1.068 0 0 1-.648.168 1.125 1.125 0 0 1-.648-.168 2.09 2.09 0 0 1-.528-.456l-4.584-7.248.624-1.272v12.144c0 .416-.128.768-.384 1.056-.256.272-.592.408-1.008.408-.4 0-.728-.136-.984-.408a1.533 1.533 0 0 1-.384-1.056V7.64c0-.4.144-.744.432-1.032a1.519 1.519 0 0 1 1.08-.432zM128.95 9.92c.416 0 .76.136 1.032.408.272.272.408.624.408 1.056v10.152c0 .416-.136.768-.408 1.056-.272.272-.616.408-1.032.408-.416 0-.76-.136-1.032-.408a1.48 1.48 0 0 1-.408-1.056V20.36l.528.216c0 .208-.112.464-.336.768a4.779 4.779 0 0 1-.912.864c-.384.288-.84.536-1.368.744a4.749 4.749 0 0 1-1.68.288c-1.104 0-2.104-.28-3-.84-.896-.576-1.608-1.36-2.136-2.352-.512-1.008-.768-2.16-.768-3.456 0-1.312.256-2.464.768-3.456.528-1.008 1.232-1.792 2.112-2.352a5.233 5.233 0 0 1 2.928-.864c.688 0 1.32.104 1.896.312a5.466 5.466 0 0 1 1.488.792c.432.32.76.648.984.984.24.32.36.592.36.816l-.864.312v-1.752c0-.416.136-.76.408-1.032a1.359 1.359 0 0 1 1.032-.432zm-4.848 10.68c.704 0 1.32-.176 1.848-.528a3.48 3.48 0 0 0 1.224-1.44c.304-.608.456-1.288.456-2.04 0-.768-.152-1.456-.456-2.064a3.48 3.48 0 0 0-1.224-1.44c-.528-.352-1.144-.528-1.848-.528-.688 0-1.296.176-1.824.528a3.654 3.654 0 0 0-1.248 1.44c-.288.608-.432 1.296-.432 2.064 0 .752.144 1.432.432 2.04.304.608.72 1.088 1.248 1.44.528.352 1.136.528 1.824.528zm9.07-10.2h5.688c.384 0 .704.128.96.384s.384.576.384.96c0 .368-.128.68-.384.936-.256.24-.576.36-.96.36h-5.688c-.384 0-.704-.128-.96-.384a1.302 1.302 0 0 1-.384-.96c0-.368.128-.672.384-.912.256-.256.576-.384.96-.384zm2.568-3c.416 0 .752.144 1.008.432.272.272.408.616.408 1.032v10.68c0 .224.04.408.12.552a.84.84 0 0 0 .36.312c.16.064.328.096.504.096.192 0 .368-.032.528-.096.16-.08.344-.12.552-.12.224 0 .424.104.6.312.192.208.288.496.288.864 0 .448-.248.816-.744 1.104-.48.288-1 .432-1.56.432-.336 0-.712-.024-1.128-.072-.4-.064-.784-.2-1.152-.408-.352-.224-.648-.56-.888-1.008-.24-.448-.36-1.064-.36-1.848v-10.8c0-.416.136-.76.408-1.032.288-.288.64-.432 1.056-.432zm12.559 15.84c-1.36 0-2.544-.28-3.552-.84a6.074 6.074 0 0 1-2.304-2.328c-.528-.976-.792-2.08-.792-3.312 0-1.44.288-2.664.864-3.672.592-1.024 1.36-1.808 2.304-2.352a5.916 5.916 0 0 1 3-.816c.816 0 1.584.168 2.304.504.736.336 1.384.8 1.944 1.392.56.576 1 1.248 1.32 2.016a6.04 6.04 0 0 1 .504 2.448 1.232 1.232 0 0 1-.456.936c-.288.24-.624.36-1.008.36h-9.168l-.72-2.4h8.808l-.528.48v-.648a2.15 2.15 0 0 0-.504-1.248 2.958 2.958 0 0 0-1.104-.864 2.98 2.98 0 0 0-1.392-.336c-.48 0-.928.064-1.344.192a2.575 2.575 0 0 0-1.08.648c-.304.304-.544.712-.72 1.224-.176.512-.264 1.16-.264 1.944 0 .864.176 1.6.528 2.208a3.924 3.924 0 0 0 1.392 1.368 3.854 3.854 0 0 0 1.824.456c.592 0 1.064-.048 1.416-.144.352-.096.632-.208.84-.336.224-.144.424-.264.6-.36a1.83 1.83 0 0 1 .816-.216c.352 0 .64.12.864.36.24.24.36.52.36.84 0 .432-.224.824-.672 1.176-.416.352-1 .664-1.752.936a7.175 7.175 0 0 1-2.328.384z"/></svg>